Coordinates
version=1
nRows=14
nColumns=36
inDegrees=yes

Units are S.I. units (second, meters, Newtons, ...)
If the header above contains a line with 'inDegrees', this indicates whether rotational values are in degrees (yes) or radians (no).

endheader
time	pelvis_tilt	pelvis_list	pelvis_rotation	pelvis_tx	pelvis_ty	pelvis_tz	hip_flexion_r	hip_adduction_r	hip_rotation_r	knee_angle_r	knee_angle_r_beta	ankle_angle_r	subtalar_angle_r	mtp_angle_r	hip_flexion_l	hip_adduction_l	hip_rotation_l	knee_angle_l	knee_angle_l_beta	ankle_angle_l	subtalar_angle_l	mtp_angle_l	lumbar_extension	lumbar_bending	lumbar_rotation	arm_flex_r	arm_add_r	arm_rot_r	elbow_flex_r	pro_sup_r	arm_flex_l	arm_add_l	arm_rot_l	elbow_flex_l	pro_sup_l
      2.33333330	    -14.62947417	      1.46946043	     -5.17355444	      0.64017239	      0.51858292	     -0.01513309	     90.25557329	     -9.13783513	      3.09828073	    118.01819913	      2.05980615	     40.00596961	    -13.07634147	     -7.49999987	     90.00976777	    -15.76807515	      7.66725118	    116.22699143	      2.02854368	     35.77727294	    -13.41433683	     -7.49999987	    -37.55503850	     -4.31822037	     -1.33496685	     92.07889679	    -10.58231397	     26.19263018	    132.41662436	    105.39635974	     97.01472917	    -15.34199343	     33.15079651	    127.95852720	    101.60949791
      2.35000000	    -15.24344516	      1.70569845	     -4.34531200	      0.64031058	      0.54331375	     -0.01198318	     86.63924545	     -8.43254252	      2.45778768	    112.85703244	      1.96972680	     38.62078648	    -14.78390993	     -7.49999987	     86.36271505	    -14.24966181	      6.25331183	    110.68103973	      1.93174856	     33.58967107	    -16.00801771	     -7.49999987	    -37.12204900	     -4.33293211	     -1.79106413	     93.96351759	    -13.66927011	     25.32234779	    131.13306183	    105.99128737	    100.52145986	    -18.39930036	     32.81601326	    126.83854608	    101.99732776
      2.36666670	    -15.80522247	      1.78912094	     -3.71780116	      0.65343499	      0.57369548	     -0.01038467	     82.46383021	     -7.93012243	      1.72306050	    107.48231012	      1.87592020	     37.68993410	    -15.61713185	     -7.49999987	     82.40858125	    -13.10703246	      5.21917178	    105.03840849	      1.83326607	     31.59165528	    -17.87699210	     -7.49999987	    -36.01670606	     -4.22046824	     -1.74881028	     93.96785261	    -17.49375219	     25.16977083	    127.87296076	    105.18576746	    102.13678901	    -21.76494001	     33.48025458	    124.05521725	    100.77791375
      2.38333330	    -15.69854805	      1.83136747	     -3.05471833	      0.66764706	      0.60465594	     -0.00894129	     77.08053700	     -7.73779702	      1.16943079	    101.75073629	      1.77588536	     36.36713499	    -16.52163253	     -7.49999987	     77.34884705	    -12.25697738	      4.21010004	     99.10981683	      1.72979262	     30.04281873	    -18.78437165	     -7.49999987	    -34.47195043	     -3.98187674	     -1.40662419	     91.63516767	    -21.52272154	     26.03120104	    120.70216241	    102.97871873	    100.96174381	    -24.75954891	     34.52561152	    118.56020619	     98.48087146
      2.40000000	    -15.11641028	      1.98636922	     -2.48132876	      0.66781320	      0.63021658	     -0.00536830	     72.00571399	     -7.67682855	      0.69466762	     96.32915742	      1.68126096	     34.66291884	    -17.36141941	     -7.49999987	     72.46061339	    -11.44768308	      3.38714543	     93.47003684	      1.63135989	     28.62067264	    -19.50309937	     -7.49999987	    -32.95093579	     -3.89185643	     -0.91978609	     89.01630946	    -25.19550346	     27.74341087	    110.46098382	    102.93040501	     98.36606127	    -27.60565704	     35.86686073	    110.22761664	     97.87151465
      2.41666670	    -14.19471155	      2.07615640	     -1.79088966	      0.67548000	      0.66166983	     -0.00470803	     66.53636409	     -7.77908438	      0.20301363	     90.57574120	      1.58084491	     32.37352540	    -18.02614549	     -7.49999987	     67.05782234	    -10.50935170	      2.49577194	     87.36511118	      1.52480884	     26.59328378	    -20.24504775	     -7.49999987	    -31.12670741	     -3.65068185	      0.13261349	     85.18523175	    -29.16050996	     31.95340565	    100.97922545	    102.29717559	     91.63922273	    -29.84827940	     36.45503244	    101.51785687	     96.63084925
      2.43333330	    -13.77777362	      2.01404097	     -1.40149223	      0.69199438	      0.68926696	     -0.00235524	     61.15371900	     -7.88488592	     -0.65039979	     84.35374535	      1.47225059	     29.49792011	    -18.59892374	     -7.49999987	     61.82964629	    -10.12170680	      1.72670771	     80.94569870	      1.41276896	     24.64922605	    -20.65712676	     -7.49999987	    -27.64046513	     -3.15687128	      0.14827514	     78.79869831	    -31.83105000	     35.24389416	     88.11420074	    100.06849745	     83.47285309	    -33.08333641	     36.76628306	     92.07843931	     94.00127882
      2.45000000	    -12.94666443	      1.71624549	     -1.13940012	      0.70763949	      0.72214489	     -0.00020865	     55.05000884	     -7.65515971	     -1.80169333	     77.52579288	      1.35308034	     26.45001489	    -18.90771887	     -7.49999987	     55.83517214	    -10.07805113	      0.81088676	     73.87607518	      1.28938075	     22.01902280	    -20.81136689	     -7.49999987	    -25.03614583	     -2.31593868	     -1.83629638	     71.91812379	    -32.39369803	     40.53049632	     76.68145437	     89.50562570	     74.86502721	    -39.97062022	     38.85017343	     85.52495416	     83.48276531
      2.46666670	    -12.02276970	      1.59270861	     -1.10590993	      0.72276621	      0.75991622	     -0.00016265	     47.96436317	     -7.60407156	     -3.18991320	     69.05101025	      1.20516748	     21.66601648	    -19.41148207	     -7.49999987	     48.75117461	    -10.04500449	     -0.53386935	     65.50328989	      1.14324808	     18.14389865	    -20.73481544	     -7.49999987	    -22.33324988	     -2.04848036	     -2.36409788	     61.28607023	    -35.81028955	     42.77724480	     69.67332873	     88.89571652	     65.00240521	    -44.91603033	     42.17797873	     78.21137476	     82.99188314
      2.48333330	    -11.09784938	      1.45489288	     -1.17955953	      0.72722904	      0.79335207	      0.00199137	     41.70959180	     -7.29753701	     -4.62340467	     60.64061343	      1.05837836	     16.68397526	    -19.03440152	     -7.49999987	     42.01079089	     -9.97892839	     -1.76664741	     56.84832512	      0.99219045	     14.68699404	    -19.35657784	     -7.49999987	    -20.14859894	     -1.58478221	     -3.35921717	     51.64163704	    -39.58723288	     45.77928986	     65.76848306	     88.39752393	     55.37303857	    -50.07350117	     46.18133847	     71.37072598	     82.40786990
      2.50000000	    -10.48240419	      1.46043821	     -1.30998467	      0.75181855	      0.82355570	      0.00346053	     35.33618568	     -7.33341064	     -6.54327638	     51.94043968	      0.90653169	      9.80643717	    -18.39600709	     -7.49999987	     35.08084740	     -9.92745526	     -3.35059190	     47.85951488	      0.83530611	     10.11336346	    -16.68696231	     -7.49999987	    -15.94758370	     -1.51079207	     -4.11660654	     39.82458792	    -43.82142189	     50.29589852	     62.92799964	     82.36290492	     41.27320575	    -53.60536105	     49.34055826	     66.15571839	     73.60479729
      2.51666670	    -10.30437112	      1.70129791	     -1.71010804	      0.76242283	      0.86452396	      0.00763284	     29.29443598	     -7.12732528	     -8.46648642	     42.13482690	      0.73539146	      2.73036087	    -15.47323308	     -7.49999987	     28.63673265	     -9.77416131	     -5.49062634	     37.83022465	      0.66026198	      3.98836536	    -12.64529144	     -7.49999987	    -12.01910786	     -1.89207942	     -4.78960667	     26.37135354	    -46.29015320	     48.73063551	     60.77162929	     81.64698596	     26.09891631	    -54.87860671	     49.18818517	     60.03953230	     72.07694958
      2.53333330	    -10.62394211	      2.14210231	     -1.66687659	      0.77960457	      0.89425122	      0.01087917	     23.61550369	     -7.26471698	    -11.19803360	     31.61455635	      0.55177810	     -5.65578067	    -11.29718214	     -7.49999987	     22.51946854	     -9.45954640	     -8.29914522	     26.81169099	      0.46795229	     -4.37404540	     -6.47073906	     -7.49999987	     -7.70698742	     -2.62497038	     -5.14610253	      9.52254660	    -48.37032288	     42.33624995	     60.61218310	     79.99016299	      9.50293918	    -54.39352767	     44.28232342	     56.02004253	     70.87646589
      2.55000000	    -11.29590421	      3.13568447	     -1.91474179	      0.79964811	      0.92379213	      0.01318279	     18.70244568	     -7.94928620	    -14.66279780	     20.67106030	      0.36077806	    -16.50640893	     -6.05329674	     -7.49999987	     17.63560248	     -8.69513236	    -12.18186140	     16.26578925	      0.28389158	    -16.05425920	     -0.83122178	     -7.49999987	     -4.40297622	     -3.29125695	      5.39063394	    -30.09487443	    -41.18368145	      0.83896047	     66.21049213	     89.59465148	     17.56005012	    -48.86629100	     68.13804997	     45.56592209	     67.47455861
